<svg width="354" height="424" viewBox="0 0 354 424" fill="none" xmlns="http://www.w3.org/2000/svg">
<g style="mix-blend-mode:luminosity" opacity="0.5">
<path d="M51.4551 29.4692L53.0887 29.793L56.3559 32.0599L59.6232 34.9744L63.2171 39.5081L65.8309 44.6895L68.118 52.4616L69.7516 54.4047L72.3653 56.6715L74.3257 59.5861L74.6524 60.5576V64.4436L73.3455 67.682L71.3852 70.2727L67.7912 73.5111V75.4541L69.0981 77.7209L70.0783 78.3686L80.2067 79.664L91.3152 82.9023L96.5428 84.8454L101.77 87.7599L106.998 91.6459L110.265 94.5605L112.879 97.1512L115.493 99.418L119.74 103.628L122.354 105.895L126.275 109.457L131.829 113.667L135.096 115.934L141.304 119.82L148.165 123.058L153.719 125.001L158.293 125.973L178.223 128.563L185.085 129.211H198.153L213.183 128.563L217.103 128.24H222.004L222.331 129.535L220.697 131.154L217.103 134.069L210.896 138.279L204.688 142.812L201.094 145.727L200.44 147.346L200.114 151.88V160.947L200.44 177.463L201.094 181.349V184.911L205.668 187.826L206.321 189.121L205.015 191.064L204.688 191.712L205.668 195.274L209.589 205.96L212.856 214.38L218.083 227.981L225.925 248.707L225.598 249.679L220.697 237.697L210.896 214.38L206.975 204.341L203.054 195.598L201.094 192.683L199.787 192.035L200.114 198.836L200.44 286.92L200.767 327.399L201.094 349.744L201.421 353.954V360.107L246.182 360.431L259.577 361.079H265.458L267.419 359.783L268.072 358.812L267.745 356.221L264.805 349.097L259.577 338.086L254.023 324.161L250.102 314.446L246.508 306.674L243.568 297.93L240.627 288.863L238.994 284.977L236.707 278.5L235.073 274.614L233.113 269.109L233.439 267.813L236.707 276.233L241.934 290.158L246.835 302.464L249.776 308.941L252.389 314.446L254.023 317.684L258.27 327.399L264.478 341.972L269.052 351.687L271.339 355.897L272.973 357.516V358.164L274.28 358.812L274.606 359.783H275.26L277.22 363.022L277.874 365.936L276.567 369.498L274.28 371.441L269.379 373.384L268.072 375.651L265.458 382.128L262.844 387.957L260.231 392.491L256.963 396.701L254.023 399.939L251.082 402.854L245.855 406.74L238.994 410.626L231.479 413.54L224.291 415.483L216.123 416.779L211.222 417.102H189.659L183.124 416.779L174.303 415.483L166.788 413.54L159.927 410.949L155.026 408.359L150.125 405.12L145.551 401.234L141.304 397.024L137.71 392.491L135.096 388.281L132.482 383.099L130.522 377.27L129.215 373.06L125.621 372.737L123.661 371.117L122.027 367.231V363.669L123.987 359.783L128.235 355.573L130.849 351.04L132.809 347.477L135.096 343.915L137.056 340.677L139.343 335.819L142.937 327.076L149.145 310.884L151.759 304.083L157.313 289.511L161.887 277.205L166.461 264.575L168.748 258.422L172.996 247.412L178.55 233.163L187.045 210.494L189.985 202.398L191.292 199.484L192.926 198.512L193.253 199.484L189.985 208.875L183.451 226.686L178.877 238.992L176.916 244.173L173.323 253.241L171.689 256.803L167.115 268.785L164.174 277.529L158.293 293.397L151.432 311.208L145.224 327.399L140.65 339.058L138.037 344.887L134.769 350.392L131.502 355.249L130.195 357.84L132.156 360.431L132.809 361.726V363.669L138.037 361.726L139.997 361.402L167.442 360.431L196.52 360.107L197.5 359.783L197.827 355.897L197.5 273.966V192.359L195.866 193.007L193.906 196.245L193.253 196.893H192.272L192.926 193.979L193.253 192.683L190.312 190.416L189.332 189.445L189.659 188.473L194.559 185.883L195.866 173.577V147.994L189.005 150.584L182.144 152.204L177.243 152.851L172.996 153.175H158.62L150.452 152.527L141.63 151.232L133.136 148.965L125.294 145.727L120.72 143.136L117.126 140.545L115.493 140.869L111.245 144.108L107.978 146.051L103.404 147.67L100.463 148.317H92.6221L86.4144 146.698L84.4541 146.374L82.167 147.346L77.5929 148.317H71.0584L67.7912 147.022L66.8111 146.374H65.8309L64.1973 149.937L62.8904 155.118L62.5637 158.033V172.605L62.8904 178.11L63.2171 179.406L66.1576 181.673L67.4645 183.292L66.8111 185.235L64.524 188.149L63.2171 195.922V218.266L62.8904 220.209L62.5637 228.953V254.86L62.8904 261.337L63.8706 266.518L64.8507 267.49L67.7912 269.433L68.118 270.404L65.8309 274.938L66.1576 277.852L68.118 284.329L70.0783 288.215L72.3653 290.806L75.3058 293.073L80.5334 298.254L80.8601 300.521L80.2067 306.35L78.2463 314.122L78.5731 315.741L83.1472 318.008L84.7808 320.275L83.8006 321.894L81.1868 324.161L79.2265 325.456H78.5731L77.9196 327.076L77.5929 327.723V341.648L78.5731 355.249L80.2067 367.555L82.4937 378.566L85.4342 387.957L88.048 393.138L90.6618 397.024L94.2557 400.91L100.79 405.768L101.117 408.683L101.77 410.949L105.038 413.54L109.612 416.131L116.146 419.045L117.126 420.341L112.879 425.846L112.552 426.817L137.056 435.561L139.017 436.533L140.324 438.152L142.611 446.248L149.145 448.191L152.086 450.134L154.373 453.372L156.333 458.23L157.313 463.087L159.6 465.678V467.297L161.561 466.649L165.808 468.269L171.362 471.183L174.629 474.098L177.57 478.308L180.51 483.813L182.471 489.642L183.451 495.147L183.778 498.709V503.891L182.471 504.862L175.61 506.481L164.174 508.424L150.779 510.044L123.987 512.634L107.325 513.93L90.0083 514.254L83.1472 514.901L65.5042 515.225L54.3956 515.549H19.1096L18.1294 515.873H4.73381L-15.1962 514.901L-20.0971 513.93L-37.0866 512.311L-51.1357 510.044L-61.5908 507.777L-70.0856 505.186L-75.3132 502.595L-76.9468 500.976L-76.62 497.09L-74.9864 490.937L-72.3727 484.461L-70.0856 480.251L-68.1253 477.336L-65.1848 474.098L-62.2443 472.155L-57.0167 469.564L-52.7693 467.621L-50.4823 466.973V465.03L-49.5021 462.116L-48.5219 456.611L-47.215 452.401L-45.2547 449.81L-42.6409 448.515L-35.7798 446.895L-34.7996 445.6L-33.4927 440.419L-32.1858 438.476L-29.8988 436.533L-26.6315 434.913L-17.1566 431.675L-8.6618 428.437L-6.04802 427.141L-8.33508 423.255V421.312L-7.02818 419.693L-0.820465 416.455L6.69415 412.892L7.02087 412.569L6.69415 407.711L7.67432 406.092L9.96136 404.149L13.2286 402.53L15.5157 400.263L17.8027 396.701L21.0699 389.252L23.6837 381.156L25.644 372.089L27.6044 358.488L27.9311 352.659V328.047L26.6242 326.104L22.0501 323.837L20.4165 321.894L20.0898 319.951L21.7234 318.008L26.6242 316.713L27.2776 315.417L26.9509 314.446L24.9906 312.827L22.3768 307.645L21.3967 303.435V299.549L23.6837 296.959L24.6639 295.34L25.9708 293.073L30.8716 291.13L33.4854 289.187L35.4457 286.92L37.7328 282.386L38.7129 278.5V274.938L36.0992 271.376V269.756L38.3862 266.842L38.7129 265.547L39.0397 202.074L38.7129 195.598L37.7328 189.769L34.7923 186.206L34.4655 185.883V184.263L36.7526 182.32L39.6931 181.349V177.139L39.0397 168.072L38.7129 158.033L37.7328 150.908L36.7526 147.346L34.7923 147.67L31.8518 148.641L28.2578 149.289H23.0303L19.1096 147.994L16.4958 146.698L14.5355 147.022L8.9812 148.317H2.12004L-1.80063 147.346L-7.02818 144.755L-10.9489 142.165L-12.9092 140.545L-14.8695 140.869L-27.9384 147.346L-34.4729 149.937L-43.6211 152.527L-54.7297 154.794L-56.69 155.118H-65.8382L-76.2933 153.499L-84.4614 151.232L-87.0752 150.26L-86.7484 176.167L-86.095 180.701L-85.7683 181.997L-85.4416 186.206L-83.8079 187.502L-80.8674 189.445L-80.214 190.74L-82.8278 192.683L-83.4812 193.007L-83.1545 195.922L-77.9269 210.494L-69.7589 231.544L-63.5512 248.383L-57.6702 264.251L-52.7693 276.881L-47.215 290.806L-41.9875 304.083L-38.7203 312.179L-34.7996 320.275L-32.1858 325.78L-28.2651 334.848L-22.0574 348.773L-18.7902 355.897L-15.8497 359.136L-13.5626 361.726L-12.2558 364.641V368.527L-13.5626 371.117L-15.1962 372.413L-19.7704 374.032L-21.0773 375.327L-23.691 381.804L-25.9781 387.309L-29.2453 393.138L-32.5125 397.348L-35.453 400.587L-36.7599 402.206H-37.4134V402.854L-41.9875 406.416L-47.215 409.654L-52.4426 412.245L-57.3434 414.188L-63.2244 415.807L-67.7985 416.779L-75.9666 417.75L-81.8476 418.074H-96.2234L-107.659 417.426L-116.153 416.131L-122.361 414.512L-127.589 412.569L-133.796 409.654L-139.351 406.092L-142.945 403.177L-146.539 399.939L-149.479 396.377L-152.42 392.491L-155.687 386.986L-158.301 380.833L-159.934 374.68V373.708H-162.875L-165.162 372.737L-166.795 370.146L-167.776 367.879V364.965L-166.795 362.374L-163.855 359.783L-160.588 358.164L-158.627 355.573L-156.014 351.363L-152.093 343.915L-147.192 332.257L-142.291 318.98L-137.717 306.35L-134.777 297.93L-128.242 280.119L-124.975 271.052L-120.728 259.394L-115.827 246.44L-110.926 233.81L-107.005 223.772L-102.104 211.466L-98.5104 202.074L-96.5501 195.922V193.979L-98.1837 192.359V190.74L-95.5699 188.797L-92.3027 186.854L-91.976 186.53V182.644L-91.3225 180.377L-90.9958 174.872V149.613L-92.3027 147.67L-94.9165 146.051L-100.798 142.812L-105.045 139.574L-108.312 136.659L-110.599 134.392L-111.579 133.097V131.802L-107.332 131.154H-94.2631L-74.9864 131.802H-68.7787L-61.5908 131.154L-52.4426 129.211L-44.6013 126.62L-39.3737 124.03L-34.4729 121.115L-30.8789 118.201L-25.9781 113.667L-23.3643 111.4L-20.4238 108.485L-17.81 106.219L-12.5825 101.361L-9.96869 99.0942L-6.70146 96.1797L-2.12735 92.2936L4.40709 87.7599L10.6148 84.5215L15.5157 82.9023L19.4363 81.9308L24.0104 81.2831L29.5647 80.9593L36.7526 79.3401L37.4061 79.0163L36.4259 76.1017L35.7724 72.8634L32.8319 68.6535L30.8716 63.4721L30.5449 60.2337L31.8518 56.9954L36.7526 52.4616L38.0595 49.2233L39.6931 43.3942L41.6534 39.5081L44.2672 35.9459L47.8612 32.0599L51.4551 29.4692ZM51.7818 33.6791L48.1879 36.9174L44.5939 41.4512L41.9802 46.6326L41.3267 48.8994L41.6534 51.814L42.3069 53.4331L41.9802 55.0523L37.0793 56.9954L34.7923 58.9384L34.4655 60.8814L35.7724 61.2052L38.3862 60.8814L40.6733 61.2052H47.8612L50.4749 60.2337L52.1086 59.2622L57.0094 58.9384L59.9499 59.2622L59.6232 57.9669L57.6628 56.3477L55.3758 55.7L45.2474 55.0523L43.6138 54.7285L44.2672 53.4331L48.5146 50.8424L52.1086 48.2517L55.0491 46.3087L56.6827 45.0134L58.9697 42.4227L58.643 40.8035L56.0292 37.2413L52.4353 33.6791H51.7818ZM36.7526 63.1483L35.4457 63.7959L35.7724 66.0628L37.0793 67.682H41.6534L47.8612 67.3581L49.4948 67.0343L49.168 65.0913L47.5344 63.7959L44.2672 63.1483H36.7526ZM41 69.3012L39.3664 69.625L40.0198 71.2442L40.6733 71.8919H46.2276L51.7818 71.2442V70.2727L50.4749 69.625L47.5344 69.3012H41ZM39.3664 74.4826L38.7129 74.8064L39.0397 76.7494L41.3267 77.3971H46.2276L53.0887 76.7494L55.7025 75.7779L56.3559 74.4826H39.3664ZM52.4353 80.6355L39.3664 80.9593L33.4854 81.9308L32.1785 83.2262L31.8518 84.1977L22.0501 86.7884L14.8622 89.3791L8.65448 92.6174L4.73381 95.2081L1.79332 97.475L1.13986 98.7704L2.77348 98.4465L9.30792 94.5605L14.8622 91.6459L21.7234 89.0552L29.8914 86.4645L32.1785 84.8454L37.7328 83.2262H40.6733L41 83.55H50.1482L57.0094 82.9023L59.9499 81.9308L60.9301 80.9593L59.2964 80.6355H52.4353ZM82.167 86.7884L83.4739 88.0837L90.6618 91.6459L95.8893 94.5605L97.5229 95.2081L96.8695 93.589L93.6023 91.3221L87.3946 88.0837L84.1273 86.7884H82.167ZM54.3956 87.7599L45.2474 89.0552L37.7328 90.6744L34.4655 92.2936L32.5052 95.532L31.525 98.7704L31.1983 101.037L31.525 106.542L32.5052 110.428L33.8121 113.019L35.119 114.315L36.4259 114.638L40.0198 113.667L41 112.695V110.428L42.9603 111.4L45.9008 113.667L47.8612 114.315H55.3758L59.6232 113.343L61.2568 110.752L60.6033 113.343L62.2369 113.019L62.8904 111.076L64.8507 110.428L66.4843 109.457H68.4447L68.7714 109.133V106.219L68.4447 104.923L68.7714 100.39V94.2366L67.1378 89.3791L64.8507 88.4076L62.2369 87.7599H54.3956ZM73.9989 91.9698L72.3653 92.9413L72.0386 94.2366L73.9989 98.1227L75.3058 99.418L74.9791 101.037L74.6524 101.361V104.276L74.9791 106.219L75.3058 114.638L77.9196 117.229L78.5731 118.201L79.8799 117.553L81.1868 115.934L83.1472 111.4L84.1273 107.19V103.304L83.1472 100.713L82.167 98.7704L82.4937 96.1797L80.8601 94.2366L76.6127 92.2936L73.9989 91.9698ZM23.0303 92.9413L20.0898 93.9128L18.4561 94.8843L17.8027 95.8558V98.1227L18.7829 100.066L17.476 100.713L16.4958 102.656L16.8225 105.571L18.4561 108.809L21.0699 111.724L27.9311 115.286L29.5647 116.258H30.2182L29.5647 114.315L28.2578 111.724L27.2776 108.809L26.9509 106.866V103.952L28.9113 98.4465V96.5035L27.6044 94.5605L25.3173 93.2651L23.0303 92.9413ZM86.7411 96.8273L85.4342 98.4465V101.037L88.048 110.752L89.0282 112.372L90.3351 112.048H90.9885H92.6221L92.9489 111.076L94.2557 110.428L95.8893 108.809V106.542L96.5428 104.923L96.2161 103.304L92.2954 99.7419L89.0282 97.475L87.7213 96.8273H86.7411ZM10.9415 99.418L9.30792 101.037L6.36743 103.304L4.08037 106.219L2.12004 108.809L1.79332 110.105L2.44676 113.019L4.08037 112.695L6.36743 111.076L8.00104 111.4L8.65448 112.048L11.595 111.724L12.5751 111.4L13.2286 109.457V102.98L12.2484 100.066L10.9415 99.418ZM-4.08769 102.98L-7.02818 105.247L-9.31525 107.838L-10.6221 109.133V109.781L-9.31525 109.457L-6.04802 106.542L-3.76097 104.599L-3.10753 102.98H-4.08769ZM72.0386 104.923L69.4248 109.781L69.0981 112.048L70.405 112.372L71.7119 109.781L72.6921 106.542V104.923H72.0386ZM97.1962 105.571L96.8695 105.895L96.5428 111.076L98.1764 112.048L98.8298 111.076L99.1566 107.514L98.1764 105.895L97.1962 105.571ZM105.038 109.457L104.711 109.781V112.048L106.998 115.61L109.938 119.172L112.225 121.439L113.859 123.382L116.473 125.649L121.374 129.211L126.601 132.126L133.789 135.364L142.937 138.926L148.492 140.869L148.165 139.574L145.551 137.955L139.017 135.04L133.789 132.449L127.908 129.211L123.987 126.62L119.74 123.382L114.513 118.524L112.225 115.934L109.285 112.695L106.998 110.105L106.018 109.457H105.038ZM-3.76097 113.991L-5.7213 115.286L-7.68164 116.905V117.553L-8.98853 118.201L-12.9092 122.087L-17.4833 125.649L-21.7307 128.563L-28.5919 132.449L-36.7599 136.983L-37.4134 138.279L-35.453 137.955L-26.6315 134.069L-18.4635 129.859L-13.5626 126.62L-9.64197 123.706L-5.7213 120.144L-3.10753 117.553L-2.12735 115.934L-2.45407 114.315L-3.76097 113.991ZM96.2161 114.962L93.6023 117.229L92.9489 119.172V122.41L93.929 124.03L95.2359 124.677L97.8497 124.354L99.81 122.087L100.463 120.144V117.877L99.1566 115.934L97.8497 114.962H96.2161ZM120.394 116.258L121.047 117.553L122.027 118.524L123.007 118.201L122.681 116.905L121.374 116.258H120.394ZM7.02087 116.905L5.38725 118.524L4.73381 119.82V122.087L6.0407 124.354L7.67432 124.677L10.2881 122.41L10.6148 120.144L9.63464 117.877L8.65448 116.905H7.02087ZM-21.404 120.467L-23.691 121.763L-27.9384 125.001L-33.8194 128.563L-38.3935 130.83L-44.6013 133.097L-52.4426 135.04L-56.69 136.012L-56.3633 136.659H-52.4426L-47.215 136.012L-40.6806 134.069L-35.453 131.802L-29.2453 128.24L-24.9979 125.001L-21.7307 122.41L-20.4238 121.115V120.467H-21.404ZM16.8225 120.467L16.1691 121.763L15.5157 126.62L14.5355 128.563L12.5751 130.183L8.32776 131.802L8.00104 133.097L8.65448 134.392L9.63464 135.04L9.30792 136.335L6.69415 137.631L3.1002 138.602L4.40709 136.335V135.688L2.12004 136.012L-0.493744 137.307L-2.45407 136.659L-4.41441 135.04L-6.70146 134.716L-7.35492 135.364V137.307L-5.7213 139.25L-1.80063 140.869L0.159698 141.193H4.73381L8.32776 140.222L12.2484 138.279L15.5157 135.364L17.8027 132.773L19.4363 129.535L19.763 127.592V125.001L19.1096 122.087L17.476 120.467H16.8225ZM104.384 120.791L103.731 125.325L102.424 127.916L100.79 129.211L100.463 130.506L102.751 130.183L104.384 128.887L105.691 126.297L106.671 122.734L105.364 120.791H104.384ZM33.4854 122.734L31.8518 123.706L30.2182 125.001L29.238 125.325L29.8914 126.62L31.1983 128.24L32.5052 130.83L33.4854 131.802L35.119 131.478V130.183L34.1388 129.211L33.8121 127.268L34.4655 124.677H36.4259L37.0793 129.535L38.0595 131.154L39.3664 131.478L40.6733 131.154V126.944L41 125.973L42.9603 125.325L42.3069 127.268V130.183H46.2276L46.881 129.535V126.944L45.9008 125.973H44.2672L44.5939 125.325L47.5344 125.001L48.1879 125.325L48.5146 129.535L48.8413 131.154H50.8017L51.1284 130.506L50.1482 129.535L50.4749 128.24L51.1284 125.001V124.354L52.1086 125.001V128.563L51.7818 129.859L53.4154 130.183L53.7422 129.859V123.382L53.4154 122.734H33.4854ZM11.9217 123.706L9.96136 125.001L7.67432 126.944L8.00104 128.24L9.96136 127.916L12.2484 125.325V123.706H11.9217ZM106.671 124.03L106.998 129.535L107.325 130.183H108.305L108.958 126.944L107.325 124.03H106.671ZM110.592 124.354L110.919 125.973L112.225 127.592L113.859 127.916L113.532 126.297L111.245 124.354H110.592ZM134.769 127.268L135.096 128.887L138.363 130.83L147.838 134.392L154.046 136.012L160.254 136.983L165.481 137.307H170.055L172.996 136.659V136.012L171.362 135.688L159.273 134.716L152.739 133.745L147.838 132.449L139.997 129.535L135.096 127.268H134.769ZM87.7213 128.24L87.3946 128.887L88.7014 133.745L90.3351 136.983L92.2954 138.602L94.9092 139.898L98.5031 140.869H103.731L106.998 139.574L109.285 137.631L109.938 136.659V134.716L108.632 133.097H107.978L106.671 135.688V136.335L105.038 136.983L102.424 137.955H99.4833L96.5428 136.983L94.5825 135.688L93.929 135.04L94.2557 132.449L90.3351 129.859L88.048 128.24H87.7213ZM-16.1764 131.154L-21.0773 134.392L-25.9781 137.307L-32.1858 140.545L-39.047 143.136L-48.1952 145.403L-48.8486 145.727V146.374L-48.1952 146.698H-45.9081L-39.047 145.079L-31.8591 142.488L-24.9979 138.926L-20.0971 135.688L-16.1764 132.773L-15.523 132.126V131.154H-16.1764ZM42.9603 133.097L38.7129 134.069L35.4457 136.012L35.119 136.983L36.0992 137.307L41 135.688L43.287 135.364L51.4551 135.04L52.1086 134.716V133.745L48.8413 133.097H42.9603ZM69.4248 135.04L68.7714 135.688L69.0981 138.279L70.7317 140.222L72.6921 141.193H74.9791L77.5929 139.25L78.2463 138.279V137.307H76.286L75.6326 137.631H73.6722L69.7516 135.04H69.4248ZM195.54 136.012L193.253 137.631V139.25L196.193 141.193L197.827 140.869L199.134 139.25L199.46 137.631L198.153 136.012H195.54ZM-92.9562 136.659L-94.2631 137.307L-92.9562 140.545L-91.6493 141.841L-89.3622 141.517L-87.0752 138.926L-87.4019 137.307L-89.0355 136.659H-92.9562ZM27.6044 138.279L25.9708 139.898L24.9906 140.545H23.357L21.7234 139.574L20.7432 139.898L21.3967 141.517L23.357 143.136L25.644 142.812L27.2776 141.517L28.5845 139.25V138.279H27.6044ZM129.868 138.279L130.849 139.898L136.403 142.488L145.224 145.403L146.531 145.727H148.818L148.165 144.431L138.69 141.517L130.522 138.279H129.868ZM39.6931 138.602L34.4655 139.574L33.4854 140.222V140.869L34.1388 141.193H38.3862L47.5344 140.869L51.4551 139.898L51.7818 138.602H39.6931ZM45.2474 143.46L41.3267 144.108V145.079L44.2672 145.403L50.4749 144.755L50.8017 143.784L50.4749 143.46H45.2474ZM41.9802 146.051L41 147.022L40.6733 149.289L42.3069 150.908H45.2474L46.881 150.26V147.022L46.5543 146.374L45.5741 146.051H41.9802ZM48.5146 147.346V149.613L49.8215 149.289L50.1482 148.965V147.346H48.5146ZM40.6733 152.527L41 155.442L41.9802 161.595L42.6336 178.434V181.997L45.5741 181.673L47.2077 181.025L46.881 177.463L44.5939 161.919L42.9603 154.147L41.3267 152.527H40.6733ZM57.3361 154.147L56.3559 155.766L56.0292 157.385V167.1L56.6827 172.929L57.3361 174.224L57.9895 173.253L59.2964 155.118L58.643 154.147H57.3361ZM41.9802 182.968L37.7328 183.94L37.4061 185.235L39.0397 186.206L41 185.883L49.8215 185.559L53.0887 184.911V184.263L49.8215 183.292L47.8612 182.968H41.9802ZM42.6336 186.206L40.3465 186.854L40.6733 187.826H43.9405L46.881 187.178V186.206H42.6336ZM195.54 187.502L193.253 188.149L193.906 188.797L195.213 189.121H198.153L200.767 188.797L201.094 188.149L198.153 187.502H195.54ZM-88.7088 188.797L-89.6889 189.769L-86.7484 190.092L-87.4019 188.797H-88.7088ZM42.9603 189.445L40.6733 190.092L40.3465 190.74L41.9802 199.484L42.6336 200.779H47.5344L52.4353 200.455L52.1086 197.541L49.4948 192.359L47.5344 189.769L47.2077 189.445H42.9603ZM-91.3225 193.007L-93.2829 195.274L-96.2234 201.751L-101.124 214.38L-106.678 228.629L-110.272 237.697L-112.233 242.878L-118.114 258.098L-120.728 264.899L-123.995 274.29L-129.549 289.834L-132.49 297.606L-135.43 306.026L-140.331 319.304L-143.271 327.723L-147.846 340.029L-151.766 348.449L-155.687 354.926L-158.954 359.136L-158.301 360.755L-156.994 363.345L-156.667 364.641L-155.36 364.317L-149.479 362.374L-146.865 362.05L-123.668 361.726L-95.2432 361.079L-90.0157 360.755L-89.6889 360.431L-89.3622 356.221V203.694L-89.6889 193.331L-91.3225 193.007ZM-87.4019 193.007V326.752L-87.0752 359.136L-86.7484 360.755L-56.3633 361.079L-37.4134 361.726H-23.3643L-21.0773 359.783L-20.7505 358.164L-22.0574 353.306L-24.0177 348.449L-29.572 336.467L-34.7996 323.837L-39.7004 312.503L-41.9875 306.674L-45.5814 298.254L-48.8486 289.187L-50.809 283.358L-52.4426 279.148L-54.0762 275.909L-55.3831 272.671L-59.6305 261.984L-63.2244 251.945L-66.1649 244.497L-69.7589 233.81L-71.7192 228.629L-76.2933 218.59L-79.8873 209.523L-83.4812 200.131L-85.4416 195.274L-86.7484 193.331L-87.4019 193.007ZM60.6033 193.007L60.9301 195.598H61.2568V193.007H60.6033ZM42.9603 202.722L43.287 204.341L43.9405 204.665H47.5344L50.8017 204.341L51.7818 203.046L51.1284 202.722H42.9603ZM45.2474 206.932L43.9405 207.256L43.6138 207.904V224.095L43.9405 248.707L44.2672 261.66L44.5939 267.49L45.2474 268.137L46.881 268.461L51.7818 268.137L53.4154 266.518L54.7223 262.632L55.0491 255.184V235.43L54.7223 221.505L53.7422 213.085L52.762 210.818L50.4749 208.227L48.8413 207.256L47.5344 206.932H45.2474ZM57.0094 212.113L56.6827 213.085L57.3361 214.704L57.6628 218.914H58.3163V212.437L57.0094 212.113ZM58.3163 219.562L57.6628 219.885L57.3361 220.857L57.0094 225.067V248.383L57.3361 258.746L57.6628 259.717L58.643 257.774L58.9697 255.831V219.562H58.3163ZM41.6534 269.433L39.3664 269.756L39.6931 271.376L40.3465 271.699H52.762L54.7223 271.052L54.0689 270.08L51.4551 269.756L41.6534 269.433ZM41.9802 274.614L41 280.443L39.0397 285.624L36.7526 289.511L35.4457 291.13L32.5052 293.073L28.2578 294.692L26.9509 296.311L27.6044 296.959L34.1388 297.283H50.1482L52.1086 296.959V294.692L41.3267 294.368L37.7328 294.044L38.3862 292.101L41 287.567L41.3267 288.863L40.3465 292.749L41.3267 293.397H48.5146L49.168 291.454L51.4551 291.777L51.1284 290.482L50.1482 289.834V287.891L50.4749 285.948L50.1482 283.034L51.7818 282.71L51.4551 281.091L52.1086 279.795L51.7818 277.852L50.1482 276.233L48.1879 275.262L43.9405 274.614H41.9802ZM24.6639 298.902L24.0104 299.226V302.788L24.9906 306.674L26.9509 310.56L28.9113 311.208L29.238 309.588L27.9311 305.379L29.238 305.702L29.8914 307.645L30.5449 308.293L32.8319 307.969L31.8518 309.588L31.525 310.884L31.8518 311.208L36.7526 311.531L36.4259 307.969L35.4457 301.169H36.4259L38.3862 311.208L39.3664 311.855H45.5741L48.1879 308.941L49.4948 306.674L52.4353 303.112L53.4154 301.492H56.3559L56.0292 299.873L55.0491 299.226L50.4749 298.902H24.6639ZM50.1482 306.998L48.5146 308.941L48.8413 309.588L50.4749 307.645L50.1482 306.998ZM31.525 313.151L29.8914 314.122L29.5647 316.389L30.2182 317.361H31.1983V316.713H32.5052L33.1587 318.008L33.4854 318.332L40.6733 318.656H45.5741L45.9008 318.332L48.8413 317.684L49.168 314.77H47.5344L46.5543 315.094L45.5741 314.122L44.2672 313.798L33.8121 313.151H31.525ZM50.8017 314.77L50.4749 318.332L52.4353 318.008L52.1086 315.417L50.8017 314.77ZM23.357 320.275L22.7035 320.923L24.6639 322.542L26.6242 323.19L27.6044 322.866L28.5845 321.57L30.2182 321.247L30.8716 322.542L34.4655 323.513L36.4259 323.837H48.5146L54.7223 323.19L57.6628 321.894V321.247L37.7328 320.923L29.238 320.599L27.9311 320.275H23.357ZM34.1388 326.104L33.4854 326.428L33.8121 357.84V370.794L33.4854 377.27L31.8518 386.986L30.2182 393.462L28.5845 397.348L24.9906 403.177L24.6639 404.473L26.2975 405.768L31.1983 407.387L38.7129 408.683H44.2672L45.2474 408.035L45.9008 408.683H49.8215L50.8017 407.387L51.7818 393.786L52.4353 390.548L53.0887 388.605L52.762 381.156H51.7818L51.4551 382.128L51.1284 387.633H50.4749L49.4948 394.11V383.099L48.8413 382.128L48.5146 368.203L47.5344 359.136L46.881 357.516L46.5543 358.812L46.881 375.651V386.662L46.5543 398.644L46.2276 400.91L45.9008 370.146V355.573L45.2474 340.677V333.229L45.9008 331.609L47.2077 331.285L48.1879 348.773L49.4948 362.374L49.8215 366.584L50.4749 365.936L51.1284 360.107L50.4749 352.011L49.4948 348.773H50.1482L51.1284 351.687L51.7818 357.516L52.4353 356.221L52.762 355.249V350.068L51.4551 345.858L50.1482 341.972L48.8413 330.962L48.1879 329.342L43.9405 328.371L36.0992 326.428L34.1388 326.104ZM31.1983 333.552L30.8716 334.848L32.1785 335.495V333.876L31.1983 333.552ZM30.8716 337.438L30.5449 339.058L31.1983 340.353L32.5052 340.029V337.762L30.8716 337.438ZM50.4749 337.438L51.4551 341.324L52.762 344.563H53.0887V342.296L51.7818 338.086L50.4749 337.438ZM56.0292 338.086V343.591L57.0094 352.659L57.9895 366.908L58.3163 386.014L58.9697 392.167L60.2766 396.701H61.2568L60.6033 391.195L60.2766 384.719L59.9499 359.783L59.6232 350.068L58.9697 345.534L57.6628 339.381L57.0094 338.086H56.0292ZM31.525 342.296L31.1983 343.915H32.1785V342.296H31.525ZM65.8309 346.506L66.1576 348.773H66.4843L66.1576 346.506H65.8309ZM31.1983 346.83L30.8716 347.801L31.1983 348.449H32.5052L32.1785 346.83H31.1983ZM30.2182 351.363L30.8716 352.659L32.5052 352.011V351.363H30.2182ZM65.1774 356.221V367.555L65.5042 391.843L65.8309 394.758L67.1378 396.053V388.929L66.8111 370.47L65.8309 358.488L65.5042 356.221H65.1774ZM29.5647 357.516L29.238 358.488L28.5845 366.26L25.9708 379.861L23.357 389.9L21.3967 394.758L17.1493 400.91V401.882L18.7829 401.558L23.357 396.701L25.9708 391.195L27.9311 385.042L28.9113 379.861L28.5845 378.242H27.6044L29.238 375.004L30.2182 371.117V364.317L29.8914 357.516H29.5647ZM271.013 360.107L269.706 361.402L269.052 362.698L269.379 365.288L270.686 365.936L272.319 364.317L273.3 362.698L272.319 360.755L271.013 360.107ZM127.581 360.755L125.948 362.698L125.294 364.317L125.621 366.26L127.255 367.879L128.888 367.231L129.868 365.288V362.698L129.215 361.079L127.581 360.755ZM-18.7902 361.079L-20.7505 363.345L-20.4238 365.612L-19.4436 366.584L-18.1367 366.26L-16.5031 364.641L-16.1764 363.022L-17.4833 361.402L-18.7902 361.079ZM-162.221 361.726L-164.182 363.993L-164.508 364.641V366.584L-163.201 368.203L-161.241 368.527L-160.261 367.555L-159.608 365.936V363.669L-160.588 362.05L-162.221 361.726ZM202.074 362.374L201.421 362.698V364.317L203.381 363.993L207.302 363.022L205.995 364.641L205.015 365.612H233.766L238.667 365.288L239.32 364.965L242.588 364.641L243.568 363.669L242.261 363.022L227.885 362.374H202.074ZM-84.1347 362.698L-86.7484 363.022L-87.0752 363.345V366.26H-51.1357L-42.9676 365.936L-40.3539 365.612L-40.0271 364.317L-44.2745 363.669L-55.0564 363.022L-63.8779 362.698H-84.1347ZM190.312 362.374L173.649 362.698L158.947 363.345L158.293 363.993L159.6 364.641L174.303 365.612H198.153V362.698L197.5 362.374H190.312ZM-92.6294 362.698L-114.193 363.345L-128.569 363.993L-131.183 364.317L-131.509 364.965L-129.222 365.612L-120.728 366.26L-110.272 366.584H-90.6691L-89.6889 366.26L-89.3622 365.288V363.022L-89.6889 362.698H-92.6294ZM132.156 367.555L131.829 368.203L132.809 369.174L136.403 370.47L142.611 372.089L151.105 373.384L159.273 374.356L164.174 374.68H193.579L197.173 374.356L198.48 373.708V371.765L198.153 371.117L197.173 370.794L170.055 370.47L155.353 369.822L143.264 368.851L133.462 367.555H132.156ZM-157.647 368.203L-157.974 369.174L-155.687 370.47L-148.826 372.413L-140.004 374.032L-131.183 375.004L-126.609 375.327H-96.5501L-90.9958 374.68L-90.0157 374.032V372.089L-90.3424 371.765L-123.668 371.117L-137.39 370.47L-150.786 369.174L-156.34 368.203H-157.647ZM49.8215 369.498L48.8413 373.06L49.8215 372.737L50.1482 372.089V369.498H49.8215ZM232.459 370.146L227.232 370.47L203.054 370.794L202.074 371.117L201.747 373.384L203.054 374.032H219.064L229.192 373.708L241.281 372.413L252.063 371.441L254.676 370.794V370.146H232.459ZM-78.5804 371.441L-86.7484 371.765L-87.0752 374.032L-86.4217 374.68L-82.8278 375.327H-67.4718L-40.6806 374.032L-36.7599 373.708L-36.1065 373.06L-37.4134 372.413L-40.3539 372.089L-61.9175 371.441H-78.5804ZM69.0981 375.651V390.872L69.4248 396.053L70.0783 398.644L71.0584 400.587H72.0386L71.7119 395.729L70.7317 385.042L69.7516 376.623L69.0981 375.651ZM134.116 375.327L134.769 378.242L136.076 381.48L139.343 387.309L142.611 391.519L146.205 395.405L149.472 398.644L152.739 401.234L158.947 405.12L165.481 408.035L171.689 409.978L177.897 411.273L184.104 411.921H207.302L214.816 411.273L226.578 409.33L234.42 407.387L240.954 405.12L244.548 403.177L248.469 399.615L253.37 394.758L255.983 391.195L260.884 383.099L262.518 379.537L263.171 376.623L261.538 376.947L257.944 382.452L254.023 386.986L250.102 390.548L245.528 393.786L239.974 397.024L234.746 399.615L228.212 402.206L220.697 404.473L212.856 406.092L205.995 407.063L197.827 407.711H188.352L179.204 406.74L169.075 404.797L165.808 403.825L158.947 400.91L155.026 398.644L154.046 397.348L157.313 396.701L160.907 396.053H163.521L171.362 397.348L185.738 398.644L190.312 399.615L191.292 399.939H193.579L192.926 398.32L189.659 395.729L187.698 394.11L187.372 393.462L192.926 395.729L198.153 398.644L200.114 398.967L199.134 397.348L195.866 395.081L190.639 391.843L189.005 390.548L190.639 390.872L195.866 393.462L196.193 391.843L199.46 393.138L204.034 395.081L208.609 396.377L209.589 396.053L207.955 394.434L202.728 391.519L194.559 386.662L194.233 386.014L199.134 387.957L205.015 391.195L209.589 393.462L210.896 393.138L211.222 392.491L212.856 391.843L213.183 390.224L210.896 388.281L208.935 387.309H208.282L208.609 386.662L211.222 386.014L210.896 384.071L210.242 382.776H212.529L214.816 383.423H217.103L216.777 382.452L213.509 380.833L208.282 380.185L200.114 379.537H186.391L159.6 379.213L144.898 377.918H140.977L141.63 379.861L143.918 382.128L146.531 384.071L147.185 385.042L142.937 384.071L141.304 382.452L137.71 376.623L135.423 375.327H134.116ZM-28.5919 374.032L-30.2255 377.594L-33.4927 384.395L-36.4332 388.605L-40.0271 392.167L-46.5616 397.024L-51.7891 399.939L-58.6503 402.53L-66.1649 404.473L-76.2933 406.416L-83.8079 407.063H-100.471L-107.005 406.416L-113.213 405.444L-120.074 403.825L-126.935 401.558L-133.143 398.644L-133.796 397.996L-130.203 397.024H-124.975L-114.52 398.644L-107.659 398.967L-99.8173 400.263L-98.5104 400.587H-95.8967L-96.5501 399.291L-98.8372 397.348L-101.778 395.081H-100.471L-96.5501 396.701L-90.3424 399.615H-88.0553L-88.382 398.32L-92.3027 395.081L-93.6096 392.815L-85.1148 396.053L-82.1743 397.024H-79.8873L-80.5407 395.729L-85.4416 393.138L-85.7683 392.491L-83.1545 392.815L-78.9071 394.758L-78.5804 393.138L-78.9071 392.491L-76.9468 392.815L-76.2933 391.843L-78.5804 388.605L-78.9071 387.309L-78.5804 386.986L-78.9071 384.719L-79.5605 383.099L-74.0063 384.395L-72.6994 384.071L-74.0063 382.452L-76.62 381.48L-82.501 380.833L-88.0553 380.509L-127.589 380.185L-143.271 378.89L-148.826 378.566L-148.172 380.185L-146.212 382.452L-143.271 384.395L-142.618 385.69L-145.885 385.042L-147.846 383.747L-150.133 380.509L-151.766 377.594L-154.053 376.299H-155.687L-154.38 380.509L-151.113 386.662L-148.499 390.548L-144.905 394.758L-139.677 399.939L-134.777 403.501L-129.876 406.416L-123.995 409.006L-116.153 411.273L-110.926 412.245L-104.065 412.892H-84.4614L-75.6399 412.245L-63.2244 410.302L-57.3434 408.683L-50.809 405.768L-45.5814 402.854L-41.334 399.615L-37.4134 396.053L-34.7996 393.138L-31.8591 388.929L-29.2453 384.395L-26.3048 377.594L-25.9781 375.004L-26.9583 374.032H-28.5919ZM52.762 389.9L53.0887 392.167L53.7422 392.491L53.4154 389.9H52.762ZM11.595 405.444L8.9812 407.387L9.30792 409.006L13.5553 410.626L23.0303 412.892L34.7923 414.836L41 415.483L46.5543 415.807H60.2766L72.3653 414.836L82.4937 413.54L89.6816 411.921L92.6221 410.626L94.9092 408.683V408.035L91.6419 408.359L79.8799 410.302L70.7317 411.273L63.8706 411.597L49.4948 411.273L35.4457 410.626L28.2578 409.33L17.476 406.416L14.2088 405.444H11.595ZM9.30792 413.54L5.71397 415.159L-1.14719 418.722L-0.820465 419.693L3.42693 420.988L10.6148 422.284L18.1294 423.255L23.0303 423.579L36.0992 423.903H59.2964L61.5835 423.579V422.608L57.6628 420.341L54.3956 418.074L53.4154 417.75L49.8215 417.426L38.7129 417.102L25.644 416.131L15.8424 414.512L11.595 413.54H9.30792ZM85.4342 415.807L84.4541 418.074L82.8204 418.398L83.1472 420.017L84.4541 420.665H86.4144L88.048 419.693L89.3549 419.369L88.3747 418.398H87.7213L87.0678 417.102L86.0877 415.807H85.4342ZM78.2463 418.074L76.6127 420.017L77.2662 421.636L78.8998 421.312L78.5731 419.369L78.8998 418.074H78.2463ZM80.2067 418.398V420.665L81.5136 420.341L81.1868 418.722L80.2067 418.398ZM57.6628 418.722L59.2964 420.017L62.5637 422.931L65.5042 423.579L66.1576 422.931L62.8904 420.665L59.9499 419.369L58.643 418.722H57.6628ZM109.612 420.665L97.1962 423.255L93.929 424.227L93.2756 424.551L93.6023 425.522L100.137 424.874L105.364 423.903L109.285 422.284L110.265 420.988L109.612 420.665ZM-6.04802 421.636V422.284L-3.76097 423.579L-0.820465 424.227L1.79332 424.551L7.67432 426.17L10.2881 426.494L13.2286 425.846H16.8225V425.522L9.96136 424.551L-4.41441 421.636H-6.04802ZM67.7912 421.636L66.8111 423.255H69.0981L69.4248 422.284L67.7912 421.636ZM89.3549 424.227L85.1075 424.551L84.1273 424.874L85.4342 426.17H87.7213L90.0083 424.874L89.3549 424.227ZM17.8027 425.522L19.1096 426.494L22.3768 428.113L25.3173 428.761L28.2578 429.084H38.0595L45.9008 428.761L46.5543 427.141L28.9113 426.494L19.1096 425.522H17.8027ZM73.3455 426.494L48.5146 427.141L47.8612 427.789L49.168 429.084H61.2568L67.7912 428.437L68.118 427.789L69.4248 428.437L72.6921 428.113L74.3257 426.817L73.3455 426.494ZM-6.70146 430.38L-11.6023 431.351L-17.1566 433.294L-21.7307 435.561V436.533L-18.7902 437.504L-10.2954 438.799L9.63464 439.771L22.3768 440.743L32.1785 441.066H56.6827L67.4645 440.743L73.0188 440.095L76.9395 438.799L77.2662 437.828L73.3455 437.504L71.7119 436.533L72.6921 435.885H65.5042L59.2964 435.237L57.0094 434.913L41 434.59L34.7923 433.942L19.1096 432.97L4.08037 431.351L-3.10753 430.38H-6.70146ZM114.513 433.618L93.6023 436.209L85.1075 437.18V438.152L85.4342 438.476H90.6618L104.711 436.856L112.879 435.237L115.493 434.266L115.819 433.618H114.513ZM-6.37474 440.743L-10.9489 441.714L-14.5428 443.009L-16.1764 444.305L-18.1367 445.276L-21.404 445.924L-22.3841 447.219V448.838L-20.0971 449.81L-5.39458 452.077L2.77348 452.724L10.9415 453.048H53.4154L69.0981 452.724L72.6921 452.077L73.9989 451.105L76.9395 451.429L78.5731 450.134L79.5532 446.572V443.333L79.2265 443.009H77.5929L76.6127 444.305L75.6326 444.629L75.9593 442.686H64.524L52.1086 442.362L29.238 442.038L6.36743 441.066L-6.37474 440.743ZM122.354 444.629L110.919 446.248L98.5031 447.543L91.9687 448.191L84.4541 448.515V449.486L87.3946 451.105L87.7213 451.429H91.3152L104.384 449.81L117.126 447.543L122.027 446.248L124.314 445.276V444.629H122.354ZM-21.404 451.429L-20.7505 453.372H-27.9384L-28.9186 454.02L-20.4238 455.963L-13.8894 458.877L-5.7213 461.144L-1.47391 462.116L4.08037 462.763L33.8121 463.087H48.1879L52.4353 462.44L55.0491 461.792V460.497L57.6628 461.144H58.9697L59.2964 459.849H59.9499L60.2766 461.792L63.2171 462.44L63.5438 461.468L63.2171 459.525L64.1973 458.23L63.8706 455.315L63.2171 454.667L57.9895 454.344L4.73381 454.02L-5.39458 453.372L-19.4436 451.429H-21.404ZM116.8 454.02L116.473 454.667L117.126 456.611H117.453V454.02H116.8ZM77.9196 454.344L76.286 454.991L75.6326 455.963L75.3058 458.877L74.9791 460.497L76.286 460.173L78.5731 458.877L79.8799 457.582L79.5532 454.667L77.9196 454.344ZM91.3152 454.667L90.0083 456.287L90.9885 459.201L91.9687 461.144L97.5229 460.82L95.5626 456.934L92.9489 454.667H91.3152ZM81.8403 454.991L81.5136 456.611L82.167 457.582L84.1273 457.258L84.4541 456.934V455.315L84.1273 454.991H81.8403ZM74.3257 456.287L72.3653 458.554L71.3852 460.173L71.7119 461.792L73.3455 461.144L74.3257 459.525L74.9791 456.287H74.3257ZM151.432 457.258L150.779 457.906V458.877L152.739 458.554L153.392 458.23V457.258H151.432ZM71.0584 458.23L69.0981 459.201L69.4248 460.173L71.0584 459.525L71.7119 458.23H71.0584ZM82.8204 459.201L82.4937 459.849L83.1472 460.82H84.7808V460.173L82.8204 459.201ZM-29.2453 461.792L-29.572 462.44L-24.3445 463.735L-17.81 464.706L-7.02818 465.678L4.40709 466.002L7.67432 465.678L8.00104 464.706L3.75365 464.059L-4.41441 463.411L-12.9092 463.087L-25.6514 462.116L-29.2453 461.792ZM40.3465 464.706L41 465.354L43.6138 466.002L45.2474 465.678V465.03L40.3465 464.706ZM56.0292 465.03L56.3559 465.678L57.6628 466.002L58.643 465.678V465.03H56.0292ZM128.235 469.888L104.057 472.802L101.117 473.126L100.463 473.774L101.77 474.745H106.344L118.433 473.126L130.849 470.859L134.116 470.536L134.443 469.888H128.235ZM-18.7902 472.479L-18.4635 473.774L-16.8299 474.422L-8.33508 474.745H-6.04802L-5.7213 473.45L-6.04802 473.126L-14.8695 472.479H-18.7902ZM-4.41441 473.774L-4.08769 474.422L-2.78081 474.098L-4.41441 473.774ZM-1.14719 473.774L-0.820465 475.069L5.38725 475.393L7.67432 475.069L8.00104 474.098L5.06053 473.774H-1.14719ZM94.2557 473.126L92.2954 473.45L84.4541 473.774L82.167 474.098L82.4937 475.393L93.2756 475.069L94.2557 474.422V473.774H94.9092V473.126H94.2557ZM29.8914 474.098L30.8716 475.069L32.5052 476.041H38.0595L52.4353 475.717L54.7223 475.069L55.0491 474.422L54.3956 474.098H29.8914ZM58.9697 474.098L55.7025 474.422L56.3559 475.393L58.3163 474.745L58.643 475.717H67.4645L77.5929 475.069V474.098H58.9697ZM78.8998 474.098L78.5731 474.745H80.2067L80.5334 474.098H78.8998ZM18.7829 474.098L16.4958 474.422L16.8225 475.393L19.1096 475.717L20.0898 475.069V474.422L18.7829 474.098ZM24.9906 474.098L23.6837 474.422L24.0104 475.393H26.9509L27.6044 474.422L26.2975 474.098H24.9906ZM31.8518 478.631L28.9113 480.574L27.6044 480.898L25.9708 479.927L24.6639 480.574L22.3768 480.251L20.4165 478.955H18.7829L17.8027 480.574L18.1294 483.813L16.8225 480.898L15.1889 478.955H13.2286L11.9217 481.87L10.6148 485.108L9.96136 485.432L10.6148 481.87V479.603L9.96136 478.955H8.00104L6.69415 480.251L5.38725 484.461L4.40709 488.023L2.77348 488.347L2.12004 488.023L1.46658 481.87L0.813141 479.603L-1.47391 479.927L-3.76097 480.898L-4.74113 482.194L-5.7213 486.404L-5.39458 489.318L-4.41441 490.29L-1.47391 490.937L3.75365 491.261L22.7035 491.909H48.1879L52.1086 491.585L53.4154 490.613L53.7422 491.585H56.0292L57.0094 490.937L57.3361 489.966V478.955L56.0292 478.631H31.8518ZM58.3163 478.955L57.9895 479.279V484.784L57.6628 491.261H59.6232L59.9499 490.937L60.2766 487.375L61.2568 488.994L64.1973 490.937H66.8111L67.7912 488.023L68.118 487.699H68.7714L69.7516 489.318L70.7317 490.29L73.3455 490.613L75.6326 489.966L76.6127 488.347L77.9196 486.727L76.9395 483.813L75.6326 481.87L75.3058 480.251H72.3653L70.7317 479.279H66.4843L64.8507 479.603L64.1973 479.279L58.3163 478.955ZM-31.5324 479.927V481.222L-30.5522 481.546L-29.8988 481.222L-30.2255 479.927H-31.5324ZM-12.2558 480.574L-13.8894 481.222L-18.1367 481.87L-19.7704 483.165L-20.4238 481.222L-21.7307 481.546L-21.0773 486.727L-20.4238 488.67L-17.1566 489.642L-14.8695 489.966H-10.6221V482.841L-10.9489 480.574H-12.2558ZM-9.64197 480.898L-9.96869 481.546V485.108L-9.64197 489.966L-7.35492 490.29L-7.02818 489.642L-7.35492 483.813L-8.33508 481.222L-9.64197 480.898ZM-35.7798 483.165L-37.4134 483.813L-38.0668 484.461L-37.7401 486.404L-35.453 487.375L-29.572 488.347L-22.0574 488.994L-21.7307 488.67V485.432L-22.3841 484.461L-25.3246 484.784L-27.9384 485.108L-28.2651 483.813L-28.9186 483.165H-30.2255L-30.8789 484.137H-33.166L-35.7798 483.165ZM106.018 484.137L104.057 486.727V488.347L105.691 488.67L106.998 487.375L107.651 485.756L107.325 484.137H106.018ZM97.5229 484.461V485.432L99.1566 487.051V484.784L97.5229 484.461ZM161.887 486.08L146.205 488.347L126.275 490.613L115.166 491.585L101.117 492.233L88.3747 492.556L87.3946 493.204L88.048 493.852L111.899 494.176L120.72 493.528L136.076 492.88L144.571 491.909L156.333 489.642L162.214 488.023L164.501 486.727L164.174 486.08H161.887ZM-58.3236 486.404V487.051L-55.7098 488.023L-40.3539 490.613L-26.3048 492.556L-10.2954 494.176L4.73381 494.823H76.6127L78.8998 494.499L78.5731 493.528L75.6326 493.204H29.238L10.9415 492.88L-12.5825 491.585L-29.8988 490.29L-39.7004 488.994L-53.7495 486.727L-58.3236 486.404ZM98.8298 487.699L97.5229 488.347L97.8497 489.318H99.4833L99.1566 487.699H98.8298ZM-38.3935 494.499L-40.0271 496.443V498.062L-38.3935 499.681L-34.4729 501.624L-28.9186 502.919L-21.0773 503.891H-18.4635L-17.1566 503.567L-13.5626 503.891L-11.6023 502.595L-10.6221 501.3V499.033L-12.9092 498.062L-19.7704 496.766L-28.2651 496.443L-29.2453 498.062V498.709L-31.2056 497.738L-33.4927 495.471L-36.4332 494.499H-38.3935ZM112.879 497.414L110.919 498.386L109.285 500.652L108.305 503.567L108.632 503.891H113.206L121.374 502.919L123.987 501.948L124.641 501.3V500.329L122.681 499.681L119.413 499.033L116.8 497.738L115.493 497.414H112.879ZM10.9415 497.738L1.46658 498.062L1.13986 498.386V504.215L2.12004 504.862L7.02087 505.51H14.2088L15.1889 505.186L15.8424 503.891L17.476 505.186L19.4363 504.862L19.763 503.891V499.357L18.4561 498.062L10.9415 497.738ZM35.7724 498.062L31.1983 498.709L29.5647 499.033L28.9113 498.709H26.6242L25.644 500.329L25.3173 503.567L27.2776 503.891L28.2578 503.567L30.2182 504.862L37.4061 505.834L44.2672 506.158H59.9499L71.0584 505.51L73.3455 505.186L73.6722 504.862V500.329L73.3455 498.709L71.3852 498.386L35.7724 498.062ZM-1.47391 498.386L-2.12735 498.709V501.948L-0.820465 503.567H0.159698L-0.167023 501.624V498.709L-1.47391 498.386ZM-8.6618 498.709L-8.98853 500.976L-8.33508 502.595H-6.37474L-4.74113 501.3L-4.08769 500.976V500.329L-6.70146 500.652L-7.02818 499.033L-8.6618 498.709ZM20.4165 498.709L20.0898 499.681V502.919L20.7432 504.215L23.0303 504.538L24.3372 503.243L24.9906 502.272V499.681L24.3372 498.709H20.4165ZM74.3257 498.709V503.891L74.6524 504.862H77.2662L77.9196 504.538L78.5731 502.595L78.8998 501.948V499.681L77.9196 498.709H74.3257ZM79.8799 499.033L79.2265 500.005L79.5532 504.538H82.167L82.4937 502.919L82.167 500.005L81.1868 499.033H79.8799ZM90.9885 499.033L89.3549 500.005L86.0877 499.681V504.215L88.048 504.538L89.3549 503.891L89.6816 503.567L90.0083 504.215H92.6221V499.357L90.9885 499.033ZM95.8893 499.033L95.2359 499.681V503.891L95.5626 504.215H97.1962L99.1566 501.624L98.5031 499.681L97.8497 499.033H95.8893ZM83.4739 499.357L82.8204 499.681V503.567L83.4739 504.538L85.1075 504.215L85.4342 502.595V500.005L84.4541 499.357H83.4739ZM106.018 500.329L103.077 502.272L102.097 503.567V504.215L104.057 503.891L106.671 501.624V500.329H106.018Z" fill="#B8860B"/>
<path d="M45.9008 331.285H47.2077L47.5344 331.933L48.8413 352.983L50.1482 365.936L50.8017 360.107L50.1482 352.011L49.4948 348.773H50.1482L51.4551 351.687L52.1085 356.221L52.4353 355.249V350.068L51.7818 346.506L52.4353 347.154L53.4154 351.363L53.7422 389.252L55.049 390.224L55.3758 392.815L54.7223 393.138L53.4154 392.491V389.9H52.762L53.0887 391.195H52.1085L52.762 388.605L52.4353 381.156L51.7818 382.128L51.4551 387.633L50.8017 387.957L50.1482 392.815L49.8215 398.32H49.4948L49.168 394.11V383.099L48.5146 382.128L48.1879 368.203L47.2077 359.135L46.881 358.812L47.2077 375.651V386.662L46.881 398.644L46.5543 402.854L45.9008 402.206L45.5741 370.146V355.573L44.9207 340.677V333.229L45.5741 331.609L45.9008 331.285ZM49.8215 369.498L48.8413 373.06L49.8215 372.737L50.1482 372.089V369.498H49.8215Z" fill="#B8860B"/>
<path d="M45.9008 331.285H47.2077L47.5344 331.933L48.1879 343.591L48.5146 353.954L48.8413 356.221V369.498L48.1879 368.203L47.2077 359.135L46.881 358.812L47.2077 375.651V386.662L46.881 398.644L46.5543 402.854L45.9008 402.206L45.5741 370.146V355.573L44.9207 340.677V333.229L45.5741 331.609L45.9008 331.285Z" fill="#B8860B"/>
<path d="M197.827 199.16H198.153L198.48 240.935L198.807 263.603V307.322L198.48 322.866L198.153 351.687H197.827L197.5 273.966V221.181L197.827 199.16Z" fill="#909091"/>
<path d="M94.5825 91.9698L96.2161 92.6174L100.464 95.532L104.057 98.4465L108.305 102.333L110.919 104.923L113.206 107.514L122.027 116.258L121.374 116.581L120.394 116.258L122.027 118.201H122.681L123.334 117.553L125.621 119.82L130.195 123.382L134.443 126.297L136.076 127.592H135.096L135.423 128.887L136.403 129.859L134.769 129.211L130.849 126.944L126.601 123.382L123.334 120.467L117.453 114.638L115.166 112.048L112.552 109.457L110.265 106.866L106.018 102.656L102.424 99.7418L97.8497 96.1796L95.8894 94.8843L96.5429 94.5605H97.1963L96.8696 93.5889L95.5627 92.9413L94.5825 91.9698Z" fill="#D9D9D9"/>
<path d="M30.8716 332.905L32.5052 333.229V337.762H30.8716L31.1983 340.029H32.5052V347.154H31.1983V348.449H32.5052V351.363H30.2181L30.8716 352.335H32.1785V360.431L30.5449 374.356L29.238 381.48L28.2578 385.042H27.9311L28.5845 378.566L27.6044 378.242L28.2578 376.623L29.5647 372.737L29.8914 371.117V364.317L29.5647 358.488L29.238 357.192L29.8914 342.944L30.2181 334.2L30.8716 332.905ZM31.1983 333.552L30.8716 334.848L32.1785 335.495V333.876L31.1983 333.552ZM31.525 342.296L31.1983 343.915H32.1785V342.296H31.525Z" fill="#EAEAEA"/>
<path d="M199.787 198.836H200.114L200.441 286.92V309.265H200.114L199.46 299.873L199.134 241.583L199.787 198.836Z" fill="#B8860B"/>
<path d="M185.411 143.136L186.391 143.46L185.085 144.755L181.491 146.051L175.61 147.022L167.115 147.67H156.986L150.452 147.022L146.531 146.051V145.727H148.818L148.165 144.755L147.185 144.108L149.799 144.431L159.273 145.727L162.867 146.051H167.768L176.916 144.755L182.797 143.46L185.411 143.136Z" fill="#8A8A8B"/>
<path d="M45.9008 355.897L46.881 356.869L47.2077 375.651V386.662L46.881 398.644L46.5543 402.853L45.9008 402.206L45.5741 370.146V358.164L45.9008 355.897Z" fill="#757576"/>
<path d="M95.236 423.255H97.1963L95.8894 423.903L93.2756 424.551L93.6023 425.198H97.523V425.522L72.3654 428.76L67.1378 429.084H61.2568V428.76L64.8508 428.437H67.7913L68.118 427.465L69.4249 428.113L72.6921 427.789L73.999 426.817H65.5042V426.494L76.2861 425.846L84.1274 424.874L85.4343 425.846H87.7213L89.355 424.874L89.6817 424.227L95.236 423.255Z" fill="#D7D7D7"/>
<path d="M57.3361 208.875H58.9697L59.2965 209.199V252.269H58.9697V219.562L57.6628 219.885L57.3361 225.067H57.0094V213.733L57.6628 214.704V218.914H58.3163L57.9896 216.971L58.3163 212.437L57.0094 212.113V209.199L57.3361 208.875Z" fill="#E4E4E4"/>
<path d="M-2.4541 423.903H0.813122L5.38723 425.198L9.96135 426.17L13.2286 425.522H17.8027L22.3768 427.789L25.3173 428.437V428.76L20.0897 428.437L9.96135 427.141L1.79329 425.522L-2.4541 424.227V423.903Z" fill="#FBFBFB"/>
<path d="M154.373 392.491H156.986L160.58 393.462L160.907 394.11L154.046 396.053H152.086L149.472 394.11L149.145 392.815H152.412L154.373 392.491Z" fill="#B8860B"/>
<path d="M72.6921 416.455L74.9791 417.102L77.2662 419.045L76.9395 420.665V421.636L73.6723 418.722L73.0188 418.398L73.999 420.017L75.9593 422.284L75.3059 422.931L73.3455 421.96L69.0981 418.074L69.4249 416.779L72.6921 416.455Z" fill="#DDDDDD"/>
<path d="M41 287.244L41.6535 287.567L41.3267 289.834L40.6733 292.749L41.3267 293.073L48.1879 293.396L47.5345 293.72V294.368L48.1879 294.692H41.3267L37.7328 294.368L37.4061 293.396L40.3466 287.891L41 287.244Z" fill="#B8860B"/>
<path d="M177.897 135.04H182.471V136.335L177.57 137.307H170.055V136.983L172.996 136.659V136.012L166.135 135.688V135.364L177.897 135.04Z" fill="#919192"/>
<path d="M30.5449 339.058L31.1983 340.029H32.5052V347.153H31.1983V348.449H32.5052V351.363H30.2181V345.858L30.5449 339.058ZM31.525 342.296L31.1983 343.915H32.1785V342.296H31.525Z" fill="#ECECED"/>
<path d="M34.4655 124.353H36.4259L36.7526 124.677L37.0793 129.535L36.0991 130.83L34.4655 130.183L33.4854 128.24L33.8121 125.325L34.4655 124.353Z" fill="#B8860B"/>
<path d="M205.341 363.022H207.302L206.648 364.317L205.341 365.288L229.519 365.612V365.936H204.034L201.747 365.288L201.421 364.317L205.341 363.022Z" fill="#89898A"/>
<path d="M233.113 267.813L233.766 268.785L236.707 276.233L241.934 290.158L243.568 294.692H242.588L240.627 288.863L238.994 284.977L236.707 278.5L235.073 274.614L233.113 269.109V267.813Z" fill="#B8860B"/>
<path d="M95.236 423.255H97.1963L95.8894 423.903L93.2756 424.551L93.6023 425.198H97.523V425.522L82.8205 427.465H79.88V427.141L86.7412 426.17L89.0282 425.198L89.6817 424.227L95.236 423.255Z" fill="#BCBCBC"/>
<path d="M143.917 386.662L145.878 386.985L147.511 387.633L148.818 389.576L152.086 389.9L153.719 390.548L153.392 391.519H148.165L146.858 389.9L144.244 387.633L143.917 386.662Z" fill="#919192"/>
<path d="M203.708 361.078H205.995V361.402H210.569L215.143 361.726L228.539 362.05L234.42 362.374V362.698H227.885L202.401 362.374L203.708 361.402V361.078Z" fill="#89898A"/>
<path d="M30.8716 332.905L32.5052 333.229V337.762H30.8716L30.2181 352.335L29.8914 356.869H29.5647V352.011L30.2181 334.2L30.8716 332.905ZM31.1983 333.552L30.8716 334.848L32.1785 335.495V333.876L31.1983 333.552Z" fill="#8B8B8C"/>
<path d="M57.3361 208.875H58.9697L59.2964 209.199V252.269H58.9697L58.6429 209.523L57.3361 209.199V208.875Z" fill="#89898A"/>
<path d="M-2.4541 423.903H0.813122L5.38723 425.198L9.96135 426.17L10.2881 426.494L23.6837 428.113L25.3173 428.437V428.76L20.0897 428.437L9.96135 427.141L1.79329 425.522L-2.4541 424.227V423.903Z" fill="#959596"/>
<path d="M1.13985 97.475H1.7933L1.46657 98.4465L3.42691 98.1227L1.7933 99.7419L-2.45409 103.304L-3.43426 103.952V103.304L-4.74115 102.98L-0.820482 99.0942L1.13985 97.475Z" fill="#D3D3D3"/>
<path d="M69.7516 376.623L70.7318 377.918L71.3852 383.423L72.0386 395.081V398.32H71.7119L70.7318 389.576L69.7516 378.566V376.623Z" fill="#909091"/>
<path d="M65.5042 102.009L66.4843 102.656V104.923L65.1774 107.514L63.2171 110.428L62.8904 109.781L64.1973 103.628L65.5042 102.009Z" fill="#B8860B"/>
<path d="M59.9499 189.445L61.2568 189.769V193.007H60.6033L61.2568 196.245L60.6033 196.893H59.2964V190.092L59.9499 189.445Z" fill="#8D8D8E"/>
<path d="M45.9008 355.897L46.881 356.869V365.612L45.9008 365.288V370.146H45.5741V358.164L45.9008 355.897Z" fill="#919192"/>
<path d="M65.1775 417.426H67.4645L68.118 418.721L69.4249 419.369L71.7119 421.636L72.3654 423.255L70.405 422.608L67.7913 420.341L65.1775 417.75V417.426Z" fill="#D6D6D6"/>
<path d="M30.2181 372.089H30.5449L30.2181 376.299L28.9113 382.776L28.2578 385.042H27.9311L28.5845 378.566L27.6044 378.242L28.2578 376.623L29.8914 372.737L30.2181 372.089Z" fill="#E3E3E3"/>
<path d="M61.5835 417.426L63.8706 418.074L65.8309 419.369L68.1179 421.312L66.8111 422.931L63.5438 420.017L61.5835 418.074V417.426Z" fill="#D9D9D9"/>
<path d="M139.017 131.154L140.65 131.478L149.799 134.716L157.967 136.335L160.254 136.659V136.983H157.64L150.452 135.688L145.224 134.069L140.324 132.126L139.017 131.154Z" fill="#9A9A9B"/>
<path d="M76.9395 416.131L78.5731 416.455L80.2067 418.074V420.664H79.2265L79.88 422.284L77.2662 421.96L78.5731 421.312L78.2463 419.369L78.8998 418.074L77.9196 418.398L76.6127 416.778L76.9395 416.131Z" fill="#D3D3D3"/>
<path d="M28.5845 321.246H30.2182L31.525 322.542L36.4259 323.513V323.837H31.1983L26.6242 323.19L27.6044 322.866L28.2578 321.57L28.5845 321.246Z" fill="#CBCBCB"/>
<path d="M37.7328 82.9023H40.6733L41 83.2262L49.4948 83.55V83.8738L43.6138 84.1977H34.4656L35.7725 83.55L37.7328 82.9023Z" fill="#ABABAC"/>
<path d="M51.1284 124.353L52.4353 125.001V128.563L51.1284 130.506L50.8017 129.859L49.8215 129.535L50.1483 128.24L51.1284 124.353Z" fill="#B8860B"/>
<path d="M46.2275 387.633H46.5543L46.881 393.462V398.644L46.5543 402.853L45.9008 402.206V393.786L46.2275 387.633Z" fill="#6C6C6D"/>
<path d="M197.5 382.128L199.134 382.452L203.054 385.042L204.361 386.662L202.728 386.338L198.807 384.071L197.5 382.776V382.128Z" fill="#B8860B"/>
<path d="M41.9802 293.397H48.188L47.5345 293.72V294.368L48.188 294.692H41.3268V294.044H41.9802V293.397Z" fill="#858586"/>
<path d="M205.341 363.022H207.302L206.648 364.317L205.341 365.288H202.401L202.074 364.317L205.341 363.022Z" fill="#FEFEFE"/>
<path d="M23.0303 104.599L24.0104 104.923L26.2975 111.724L25.9708 113.019L24.0104 109.133L23.0303 105.571V104.599Z" fill="#A2A2A2"/>
<path d="M80.2067 415.807H81.8403L84.4541 418.074V418.398H82.8205L82.4938 419.369L80.2067 417.102L79.88 416.131L80.2067 415.807Z" fill="#D0D0D0"/>
<path d="M41 185.559H48.1879L47.2077 185.883V187.826H43.9405V187.502L46.881 187.178V186.206L40.6733 186.53L39.6931 185.883L41 185.559Z" fill="#787879"/>
<path d="M125.948 136.335L127.908 136.659L131.502 138.278L130.195 138.602L130.849 139.898L128.888 139.25L125.948 136.983V136.335Z" fill="#89898A"/>
<path d="M30.8716 332.905L32.5053 333.229V337.762H30.5449V333.229L30.8716 332.905ZM31.1984 333.552L30.8716 334.848L32.1785 335.495V333.876L31.1984 333.552Z" fill="#FEFEFE"/>
<path d="M51.1284 304.407V305.378L49.8215 307.969L48.8413 308.941L48.5146 310.236L46.881 311.208L46.2275 310.884L47.8612 308.941L49.168 306.674L51.1284 304.407Z" fill="#89898A"/>
<path d="M35.119 300.845L36.7526 301.169L37.0794 303.759L36.7526 304.083L36.4259 307.969H36.0992L35.119 300.845Z" fill="#898989"/>
<path d="M53.0887 389.252L54.7224 389.9L55.3758 391.519L55.0491 393.138L53.4155 392.814V389.9H52.762L53.0887 391.195H52.1086L52.4353 389.576L53.0887 389.252Z" fill="#868687"/>
<path d="M46.881 357.516L47.8611 357.84L48.1879 358.812L48.5146 363.021V368.203H48.1879L47.2077 359.135L46.881 357.516Z" fill="#8D8D8E"/>
<path d="M-2.4541 423.903H0.813122L5.38723 425.198L6.69412 425.846L1.79329 425.522L-2.4541 424.227V423.903Z" fill="#D2D2D2"/>
<path d="M50.4749 338.086L51.1284 339.381L52.4352 342.944L52.1085 343.591L50.4749 342.62L50.1482 343.267L50.4749 338.086Z" fill="#89898A"/>
<path d="M95.2359 423.255H97.1962L95.8893 423.903L92.9488 424.874H90.0083L89.6816 424.227L95.2359 423.255Z" fill="#99999A"/>
<path d="M95.8893 105.895H96.8695V109.133L96.2161 110.105L95.5626 108.809V106.542L95.8893 105.895Z" fill="#9C9C9D"/>
<path d="M187.372 393.462L189.985 394.11L191.619 394.758L190.312 395.405L189.005 395.729L187.372 394.11V393.462Z" fill="#B3B3B4"/>
<path d="M233.113 267.813L233.766 268.785L236.053 274.29L235.726 275.262L235.073 274.614L233.113 269.109V267.813Z" fill="#7B7B7C"/>
<path d="M240.954 288.539L241.607 289.187L243.568 294.692H242.588L240.954 290.158V288.539Z" fill="#B8860B"/>
<path d="M139.017 131.154L140.65 131.478L145.878 133.421V133.745L143.264 133.421L139.017 131.478V131.154Z" fill="#BBBBBC"/>
<path d="M78.5731 419.045L80.2067 420.665H79.2266L79.88 422.284L77.2662 421.96L78.5731 421.312L78.2464 419.369L78.5731 419.045Z" fill="#7A797A"/>
<path d="M85.4343 417.102L86.4144 417.426L87.0679 418.398L86.7412 419.693L85.1075 419.369L85.4343 417.102Z" fill="#666666"/>
<path d="M143.917 386.662L145.878 386.985L147.511 387.633V388.281H144.898L143.917 387.309V386.662Z" fill="#4D4C4D"/>
<path d="M36.4259 124.677H36.7526L37.0794 129.535L36.0992 130.83L34.4656 130.183V129.859H36.0992L36.4259 124.677Z" fill="#A0A0A1"/>
<path d="M18.7828 100.066L20.0897 100.713L21.0699 102.333L20.7432 103.628L19.4363 102.98L18.7828 100.066Z" fill="#B8860B"/>
<path d="M29.238 378.242H29.5647L29.238 381.48L28.2578 385.042H27.9311L28.2578 381.804L28.9113 379.537L29.238 378.242Z" fill="#BABABB"/>
<path d="M57.6628 417.75L59.9498 418.398L61.9102 419.693L60.93 420.017L57.3361 418.722L57.6628 417.75Z" fill="#CECECE"/>
<path d="M46.881 314.122L49.4948 314.446V317.684L48.1879 318.008L48.8413 317.684L49.168 314.77L46.5543 315.417L46.2275 314.446L46.881 314.122Z" fill="#909091"/>
<path d="M59.95 190.416H60.9301V193.007L60.6034 194.302H59.95V190.416Z" fill="#FEFEFE"/>
<path d="M50.8017 125.001H51.1284V130.506L50.8017 129.859L49.8215 129.535L50.1483 128.24L50.8017 125.001Z" fill="#B8860B"/>
<path d="M149.472 390.224H152.739L153.719 390.548V391.195H150.779L149.472 390.548V390.224Z" fill="#B8860B"/>
<path d="M43.9406 126.297L44.594 126.62V129.211L43.2871 129.535L43.6138 126.62L43.9406 126.297Z" fill="#7B7B7C"/>
<path d="M220.697 237.049L221.677 237.373L222.984 240.935L222.658 241.906L221.351 239.316L220.697 237.049Z" fill="#B8860B"/>
<path d="M64.8507 106.542H65.5042L64.8507 107.838L63.2171 110.428L62.8904 109.781L63.5438 107.19H64.524L64.8507 106.542Z" fill="#B8860B"/>
<path d="M61.2568 110.428L61.9103 110.752L60.6034 113.667H58.6431L59.6232 113.343L60.2767 111.724L61.2568 110.428Z" fill="#A9A9AA"/>
<path d="M30.8716 332.905L32.5053 333.229V337.762H32.1785V333.876L30.5449 334.2L30.8716 332.905Z" fill="#AEAEAF"/>
<path d="M68.7714 106.542H69.0981V108.485L70.0783 108.809L69.7516 109.781L68.118 110.105L67.7913 109.457L68.4447 109.133L68.7714 106.542Z" fill="#8D8D8E"/>
<path d="M46.2275 102.656L47.2077 102.98L46.5543 104.276L44.9207 104.599L45.5741 103.304L46.2275 102.656Z" fill="#727273"/>
<path d="M232.459 266.194L233.113 266.842L232.786 267.813L232.459 266.194Z" fill="#89898A"/>
</g>
</svg>
